<svg xmlns="http://www.w3.org/2000/svg" viewBox="0 0 120 150" x="0px" y="0px"><title></title><path d="M32.06,38,10,60l7.65,7.63L32.06,82.05l7.65-7.63L25.3,60,39.71,45.6Zm4.82,36.47-4.82,4.8-13-13L12.83,60,32.06,40.78l4.82,4.82L22.47,60Z"/><path d="M87.94,38,80.29,45.6,94.7,60,80.29,74.42l7.65,7.63,14.41-14.41L110,60Zm13,28.27-13,13-4.82-4.8L97.53,60,83.12,45.6l4.82-4.82L107.17,60Z"/><path d="M46.47,89.6l10.45,2.8,16.61-62L63.08,27.6ZM71.08,31.81,55.5,90l-6.58-1.76L64.5,30.05Z"/><text x="0" y="135" fill="#000000" font-size="5px" font-weight="bold" font-family="'Helvetica Neue', Helvetica, Arial-Unicode, Arial, Sans-serif"></text><text x="0" y="140" fill="#000000" font-size="5px" font-weight="bold" font-family="'Helvetica Neue', Helvetica, Arial-Unicode, Arial, Sans-serif"></text></svg>
