<?xml version="1.0" standalone="no"?>
<!DOCTYPE svg PUBLIC "-//W3C//DTD SVG 20010904//EN"
 "http://www.w3.org/TR/2001/REC-SVG-20010904/DTD/svg10.dtd">
<svg version="1.0" xmlns="http://www.w3.org/2000/svg"
 width="1280.000000pt" height="640.000000pt" viewBox="0 0 1280.000000 640.000000"
 preserveAspectRatio="xMidYMid meet">
<metadata>
Created by potrace 1.15, written by Peter Selinger 2001-2017
</metadata>
<g transform="translate(0.000000,640.000000) scale(0.100000,-0.100000)"
fill="#000000" stroke="none">
<path d="M11193 5609 c-57 -28 -103 -82 -103 -120 0 -88 115 -206 459 -473
476 -369 609 -494 718 -676 62 -104 78 -154 78 -250 0 -71 -4 -94 -26 -141
-55 -117 -217 -253 -405 -340 -94 -43 -289 -121 -346 -137 -18 -5 -112 -35
-208 -66 -512 -166 -1089 -311 -1591 -400 -490 -87 -834 -125 -1804 -201 -265
-21 -456 -40 -770 -76 -143 -16 -681 -77 -1195 -134 -1535 -172 -2198 -259
-2655 -350 -234 -47 -296 -64 -560 -151 -252 -83 -365 -127 -409 -157 -27 -19
-28 -21 -10 -34 13 -9 58 -13 164 -13 358 0 1236 98 3100 345 432 57 1008 134
1280 170 272 36 1001 129 1620 206 1402 174 1756 220 2040 265 521 82 849 168
1320 346 521 197 784 386 880 633 31 79 34 232 6 315 -61 178 -136 279 -460
614 -634 657 -743 756 -904 822 -75 31 -161 32 -219 3z"/>
<path d="M2128 2757 c-30 -19 -167 -117 -304 -219 -566 -420 -720 -510 -1639
-958 -146 -72 -202 -113 -175 -130 8 -5 28 -10 44 -10 16 0 37 -6 45 -14 24
-22 109 -40 411 -91 755 -128 963 -183 1875 -498 88 -30 176 -58 195 -61 69
-11 76 23 19 82 -23 24 -32 42 -34 74 -1 24 -22 93 -45 153 -132 344 -189 541
-216 748 -14 101 -15 176 -10 434 7 345 5 363 -46 363 -16 0 -38 -5 -49 -10
-20 -11 -26 -1 -9 16 21 21 49 118 39 136 -14 26 -38 22 -101 -15z m-156 -434
c-11 -21 -29 -69 -40 -108 -101 -347 -16 -709 247 -1054 l25 -34 -39 21 c-405
206 -1054 360 -1529 363 -135 0 -135 0 34 54 442 143 910 415 1211 704 57 54
105 98 107 96 2 -2 -5 -20 -16 -42z"/>
</g>
</svg>
