<svg xmlns="http://www.w3.org/2000/svg" xmlns:xlink="http://www.w3.org/1999/xlink" id="Layer_1" x="0px" y="0px" viewBox="0 0 144 54" style="enable-background:new 0 0 144 54;" xml:space="preserve"><style type="text/css">	.st0{fill:#22C1C5;}	.st1{fill:#006BFD;}	.st2{fill:#C643CA;}	.st3{fill:#FFFFFF;}</style><g>	<circle class="st0" cx="5.3" cy="16.9" r="3.3"></circle>	<path class="st1" d="M9.3,45.7l7.5-1.2c1-0.1,1.9,0,2.7,0.4c0.8,0.4,1.3,1,1.3,1.8l0,0.3c0.1,0.8-0.2,1.5-0.9,2.2  c-0.7,0.7-1.5,1.1-2.5,1.3L10,51.7c-1,0.1-1.9,0-2.7-0.4c-0.8-0.4-1.3-1-1.3-1.8l0-0.3c-0.1-0.8,0.2-1.5,0.8-2.2  C7.4,46.3,8.2,45.9,9.3,45.7z"></path>	<path class="st1" d="M8.3,37.8l7.5-1.2c1-0.1,1.9,0,2.7,0.4c0.8,0.4,1.3,1,1.3,1.8l0,0.3c0.1,0.8-0.2,1.5-0.9,2.2  c-0.7,0.7-1.5,1.1-2.5,1.3L9,43.8c-1,0.1-1.9,0-2.7-0.4s-1.3-1-1.3-1.8l0-0.3c-0.1-0.8,0.2-1.5,0.8-2.2C6.4,38.3,7.3,37.9,8.3,37.8  z"></path>	<path class="st2" d="M7.4,29.8l20.5-3.2c1-0.1,1.9,0,2.7,0.4s1.3,1,1.3,1.8l0,0.3c0.1,0.8-0.2,1.5-0.8,2.2  c-0.7,0.7-1.5,1.1-2.5,1.3L8.1,35.8c-1,0.1-1.9,0-2.7-0.4c-0.8-0.4-1.3-1-1.3-1.8l0-0.3c-0.1-0.8,0.2-1.5,0.8-2.2  C5.5,30.4,6.3,30,7.4,29.8z"></path>	<path class="st2" d="M6.3,21.9l33.9-5.3c1-0.1,1.9,0,2.7,0.4c0.8,0.4,1.3,1,1.3,1.8l0,0.3c0.1,0.8-0.2,1.5-0.8,2.2  c-0.7,0.7-1.5,1.1-2.5,1.3L7,27.9c-1,0.1-1.9,0-2.7-0.4c-0.8-0.4-1.3-1-1.3-1.8l0-0.3c-0.1-0.8,0.2-1.5,0.8-2.2  C4.4,22.4,5.3,22,6.3,21.9z"></path>	<path class="st0" d="M19.8,11.6l19.6-3.1c1-0.1,1.9,0,2.7,0.4c0.8,0.4,1.3,1,1.3,1.8l0,0.3c0.1,0.8-0.2,1.5-0.8,2.2  c-0.7,0.7-1.5,1.1-2.5,1.3l-19.6,3.1c-1,0.1-1.9,0-2.7-0.4c-0.8-0.4-1.3-1-1.3-1.8l0-0.3c-0.1-0.8,0.2-1.5,0.9-2.2  C17.9,12.2,18.7,11.8,19.8,11.6z"></path>	<path class="st0" d="M4.4,6l16.5-2.6c1-0.1,1.9,0,2.7,0.4c0.8,0.4,1.3,1,1.3,1.8l0,0.3c0.1,0.8-0.2,1.5-0.9,2.2  c-0.7,0.7-1.5,1.1-2.5,1.3L5.1,12c-1,0.1-1.9,0-2.7-0.4s-1.3-1-1.3-1.8l0-0.3C0.9,8.6,1.2,7.9,1.9,7.2C2.5,6.6,3.4,6.1,4.4,6z"></path></g><g>	<g>		<path class="st3" d="M40.7,40.7v7.8h-2.9V29.2h3.3c1.6,0,2.8,0.1,3.7,0.3c0.8,0.2,1.6,0.7,2.2,1.3c1.1,1.1,1.7,2.5,1.7,4.1   c0,1.8-0.6,3.2-1.8,4.2c-1.2,1-2.8,1.6-4.8,1.6L40.7,40.7L40.7,40.7z M40.7,38h1.1c2.7,0,4-1,4-3.1c0-2-1.4-3-4.1-3h-1V38z"></path>		<path class="st3" d="M50.6,38.8c0-2.7,1-5.1,3-7c2-1.9,4.4-2.9,7.1-2.9c2.7,0,5.1,1,7.1,3c2,2,3,4.3,3,7.1c0,2.8-1,5.1-3,7.1   c-2,1.9-4.4,2.9-7.2,2.9c-2.5,0-4.7-0.9-6.7-2.6C51.7,44.4,50.6,41.9,50.6,38.8z M53.6,38.8c0,2.1,0.7,3.9,2.2,5.3   c1.4,1.4,3.1,2.1,4.9,2.1c2,0,3.7-0.7,5.1-2.1c1.4-1.4,2.1-3.1,2.1-5.2c0-2.1-0.7-3.8-2.1-5.2c-1.4-1.4-3-2.1-5.1-2.1   c-2,0-3.7,0.7-5.1,2.1C54.2,35.1,53.6,36.8,53.6,38.8z"></path>		<path class="st3" d="M74.5,48.5V29.2h2.9c1.3,0,2.3,0.1,3.1,0.3c0.8,0.2,1.4,0.5,2,1c0.5,0.5,1,1.1,1.3,1.8   c0.3,0.7,0.5,1.5,0.5,2.2c0,1.4-0.5,2.5-1.6,3.5c1,0.4,1.8,1,2.4,1.8c0.6,0.9,0.9,1.9,0.9,3c0,1.5-0.5,2.8-1.6,3.8   c-0.6,0.6-1.4,1.1-2.2,1.3c-0.9,0.2-2,0.4-3.3,0.4L74.5,48.5L74.5,48.5z M77.4,37.5h0.9c1.1,0,1.9-0.2,2.4-0.7   c0.5-0.5,0.7-1.2,0.7-2.1c0-0.9-0.3-1.6-0.8-2.1c-0.5-0.5-1.3-0.7-2.2-0.7h-1V37.5z M77.4,45.8h1.8c1.3,0,2.3-0.3,2.9-0.8   c0.7-0.6,1-1.3,1-2.1c0-0.8-0.3-1.5-0.9-2.1c-0.6-0.6-1.7-0.8-3.3-0.8h-1.5V45.8z"></path>		<path class="st3" d="M92.5,29.2v11.6c0,1.6,0.3,2.9,0.8,3.6c0.8,1.1,1.9,1.7,3.4,1.7c1.5,0,2.6-0.6,3.4-1.7   c0.5-0.7,0.8-1.9,0.8-3.6V29.2h2.9v12.4c0,2-0.6,3.7-1.9,5c-1.4,1.5-3.2,2.2-5.3,2.2c-2.1,0-3.8-0.7-5.2-2.2c-1.3-1.3-1.9-3-1.9-5   V29.2H92.5z"></path>		<path class="st3" d="M122.8,30.3v3.5c-1.7-1.4-3.4-2.1-5.2-2.1c-2,0-3.6,0.7-5,2.2c-1.4,1.4-2.1,3.1-2.1,5.2c0,2,0.7,3.7,2.1,5.1   c1.4,1.4,3,2.1,5,2.1c1,0,1.9-0.2,2.6-0.5c0.4-0.2,0.8-0.4,1.3-0.7c0.4-0.3,0.9-0.6,1.3-1v3.5c-1.7,1-3.4,1.4-5.3,1.4   c-2.7,0-5.1-1-7.1-2.9c-1.9-1.9-2.9-4.3-2.9-7c0-2.5,0.8-4.7,2.5-6.6c2-2.4,4.6-3.5,7.8-3.5C119.5,28.9,121.2,29.3,122.8,30.3z"></path>		<path class="st3" d="M137.8,43.9h-8.2l-2.2,4.7h-3.1l9.6-20.5l9.2,20.5h-3.2L137.8,43.9z M136.6,41.1l-2.9-6.6l-3,6.6H136.6z"></path>	</g></g></svg>